<svg id="Layer_4" data-name="Layer 4" xmlns="http://www.w3.org/2000/svg" viewBox="0 0 180.48 115.18"><defs><style>.cls-1{fill:#fff;}.cls-2,.cls-3{fill:#3d005b;}.cls-3{stroke:#3d005b;stroke-miterlimit:10;}</style></defs><polygon class="cls-1" points="92.62 54.82 90.71 63.95 51.28 63.95 51.28 54.82 92.62 54.82"/><path class="cls-2" d="M90.88,64.16H51.07V54.61H92.88Zm-39.39-.42H90.54L92.36,55H51.49Z"/><polygon class="cls-1" points="127.49 54.82 127.49 63.95 98.38 63.95 92.62 54.82 127.49 54.82"/><path class="cls-2" d="M127.7,64.16H98.27l-6-9.55H127.7Zm-29.2-.42h28.78V55H93Z"/><path class="cls-3" d="M101.93,54.82h-.08l6,9.13,11.91,18.26-9.77,0L98.38,64l-5.76-9.13L90.71,64,86.88,82.21H77.79L81.48,64l1.85-9.13,2.76-13.69L87.94,32l3.68-18.26h10.31A20.55,20.55,0,0,1,122.35,32a21.48,21.48,0,0,1,.12,2.28,20.52,20.52,0,0,1-20.54,20.54Z"/><polygon class="cls-1" points="85.45 32 83.56 41.13 51.28 41.13 51.28 32 85.45 32"/><path class="cls-2" d="M83.73,41.34H51.07V31.79H85.71Zm-32.24-.42h31.9l1.81-8.71H51.49Z"/><polygon class="cls-1" points="130.22 32 128.9 41.13 86.09 41.13 87.94 32 130.22 32"/><path class="cls-2" d="M129.08,41.34H85.84l1.92-9.55h42.7Zm-42.73-.42h42.37L130,32.21H88.11Z"/><polygon class="cls-1" points="89.25 13.74 85.45 32 83.56 41.13 75.01 82.21 65.93 82.21 74.23 41.13 76.07 32 79.76 13.74 89.25 13.74"/><path class="cls-2" d="M75.18,82.42H65.67l0-.25L79.59,13.53h9.92L83.76,41.17Zm-9-.42h8.66L89,14H79.93Z"/><path class="cls-2" d="M52.46,103.53H49.82l-2.14-5.31H44.17v5.31H41.68V90.6h6a5.4,5.4,0,0,1,3.67,1.06,3.47,3.47,0,0,1,1.18,2.73A3.43,3.43,0,0,1,50,97.82Zm-8.29-7.18h3.1a3.13,3.13,0,0,0,2-.53,1.77,1.77,0,0,0,.66-1.46A1.69,1.69,0,0,0,49.29,93a2.78,2.78,0,0,0-1.82-.53h-3.3Z"/><path class="cls-2" d="M65.91,103.53h-9V90.6h8.9v1.93H59.41V96h5.15v1.88H59.41v3.62h6.5Z"/><path class="cls-2" d="M80.84,103.53H78.05L75.13,97l-2.67,3.32v3.26H70V90.6h2.49v6.79c.32-.46.55-.77.69-1l4.59-5.84h2.52L77,94.86Z"/><path class="cls-2" d="M93.12,103.53H84.61V90.6h2.63v10.82h5.88Z"/><path class="cls-2" d="M107.72,103.53h-2.66L104,100.46H98.63l-1.08,3.07H95.42L100,90.6h3.07Zm-4.44-4.94-2-5.77-2,5.77Z"/><path class="cls-2" d="M124.86,103.53h-2.54V92.21l-3.83,11.32h-1.31l-3.85-11.32v11.32h-2V90.6h3.9l2.9,8.33,2.85-8.33h3.92Z"/><path class="cls-2" d="M138.81,103.53h-9V90.6h8.9v1.93h-6.41V96h5.15v1.88h-5.15v3.62h6.5Z"/></svg>